# xmcd CD database file
#
# Track frame offsets:
#	182
#	18689
#	37773
#	55084
#	74345
#	90140
#	106639
#	122248
#
# Disc length: 1838 seconds
#
# Revision: 0
# Processed by: cddbd v1.5.2PL0 Copyright (c) Steve Scherf et al.
# Submitted via: CDex 1.79
#
DISCID=58072c08
DTITLE=Stephanie Keys - Dead Horse Road
DYEAR=2011
DGENRE=Country
TTITLE0=BackPocket Man
TTITLE1=Dead Horse Road
TTITLE2=Searchin for My Poppa
TTITLE3=Lonely Tonight
TTITLE4=Shine
TTITLE5=Room to Grow
TTITLE6=You're No Good
TTITLE7=Sun Will Rise
EXTD=YEAR: 2011
EXTT0=
EXTT1=
EXTT2=
EXTT3=
EXTT4=
EXTT5=
EXTT6=
EXTT7=
PLAYORDER=
